<svg width="35" height="35" viewBox="0 0 35 35" fill="none" xmlns="http://www.w3.org/2000/svg">
<path d="M24.7917 17.5C24.7917 21.5257 21.5257 24.7917 17.5 24.7917C13.4743 24.7917 10.2083 21.5257 10.2083 17.5C10.2083 13.4743 13.4743 10.2083 17.5 10.2083C21.5257 10.2083 24.7917 13.4743 24.7917 17.5Z" fill="white"/>
<path d="M22.8448 21.2989L16.8948 32.0687C9.12187 31.7552 2.91666 25.3458 2.91666 17.5C2.91666 9.44999 9.45 2.91666 17.5 2.91666V10.9375C13.876 10.9375 10.9375 13.876 10.9375 17.5C10.9375 21.1239 13.876 24.0625 17.5 24.0625C19.7094 24.0625 21.6562 22.976 22.8448 21.2989Z" fill="url(#paint0_linear_1_9)"/>
<path d="M32.0833 17.5C32.0833 25.5573 25.5573 32.0833 17.5 32.0833H16.8875L22.8448 21.2989C23.6104 20.2271 24.0625 18.9146 24.0625 17.5C24.0625 13.876 21.124 10.9375 17.5 10.9375V2.91666C23.1948 2.91666 28.1094 6.18332 30.5156 10.9375C31.5073 12.9135 32.0833 15.1375 32.0833 17.5Z" fill="url(#paint1_linear_1_9)"/>
<path d="M30.5083 10.9375H17.5C13.876 10.9375 10.9375 13.876 10.9375 17.5C10.9375 18.5864 11.2 19.6073 11.674 20.5114H11.6667L5.22084 9.66874H5.20625C7.7875 5.60728 12.3302 2.91666 17.5 2.91666C23.1875 2.91666 28.1094 6.18332 30.5083 10.9375Z" fill="url(#paint2_linear_1_9)"/>
<path d="M22.6042 17.5C22.6042 20.3197 20.3197 22.6042 17.5 22.6042C14.6803 22.6042 12.3958 20.3197 12.3958 17.5C12.3958 14.6803 14.6803 12.3958 17.5 12.3958C20.3197 12.3958 22.6042 14.6803 22.6042 17.5Z" fill="url(#paint3_linear_1_9)"/>
<defs>
<linearGradient id="paint0_linear_1_9" x1="4.22114" y1="11.4071" x2="22.8404" y2="21.307" gradientUnits="userSpaceOnUse">
<stop stop-color="#4CAF50"/>
<stop offset="0.489" stop-color="#4AAF50"/>
<stop offset="0.665" stop-color="#43AD50"/>
<stop offset="0.79" stop-color="#38AA50"/>
<stop offset="0.892" stop-color="#27A550"/>
<stop offset="0.978" stop-color="#11A050"/>
<stop offset="1" stop-color="#0A9E50"/>
</linearGradient>
<linearGradient id="paint1_linear_1_9" x1="24.4854" y1="32.0833" x2="24.4854" y2="11.0855" gradientUnits="userSpaceOnUse">
<stop stop-color="#FFD747"/>
<stop offset="0.482" stop-color="#FFD645"/>
<stop offset="0.655" stop-color="#FED43E"/>
<stop offset="0.779" stop-color="#FCCF33"/>
<stop offset="0.879" stop-color="#FAC922"/>
<stop offset="0.964" stop-color="#F7C10C"/>
<stop offset="1" stop-color="#F5BC00"/>
</linearGradient>
<linearGradient id="paint2_linear_1_9" x1="26.3433" y1="4.15843" x2="8.43938" y2="15.346" gradientUnits="userSpaceOnUse">
<stop stop-color="#F7572F"/>
<stop offset="0.523" stop-color="#F7552D"/>
<stop offset="0.712" stop-color="#F75026"/>
<stop offset="0.846" stop-color="#F7461B"/>
<stop offset="0.954" stop-color="#F7390A"/>
<stop offset="1" stop-color="#F73100"/>
</linearGradient>
<linearGradient id="paint3_linear_1_9" x1="13.8906" y1="13.8906" x2="21.1094" y2="21.1094" gradientUnits="userSpaceOnUse">
<stop stop-color="#2AA4F4"/>
<stop offset="1" stop-color="#007AD9"/>
</linearGradient>
</defs>
</svg>
