<svg width="80" height="40" viewBox="0 0 80 40" fill="none" xmlns="http://www.w3.org/2000/svg">
<g clip-path="url(#clip0_10_486)">
<path d="M16 15C15.4375 15 14.8802 15.0573 14.3281 15.1719C13.7812 15.2812 13.25 15.4453 12.7344 15.6641C12.2188 15.8776 11.7266 16.1406 11.2578 16.4531C10.7891 16.7656 10.3568 17.1224 9.96094 17.5234C9.76302 17.7214 9.58594 17.9297 9.42969 18.1484C9.27344 18.362 9.10677 18.5729 8.92969 18.7812C8.86719 18.8542 8.80729 18.9089 8.75 18.9453C8.69271 18.9818 8.61458 19 8.51562 19C8.375 19 8.25521 18.9531 8.15625 18.8594C8.0625 18.7604 8.01562 18.6406 8.01562 18.5C8.01562 18.401 8.04427 18.3073 8.10156 18.2188C8.51302 17.5625 9.01042 16.974 9.59375 16.4531C10.1823 15.9323 10.8229 15.4896 11.5156 15.125C12.2083 14.7604 12.9349 14.4818 13.6953 14.2891C14.4609 14.0964 15.2292 14 16 14C16.7656 14 17.5312 14.0964 18.2969 14.2891C19.0625 14.4818 19.7891 14.7604 20.4766 15.125C21.1693 15.4896 21.8073 15.9323 22.3906 16.4531C22.9792 16.974 23.4818 17.5625 23.8984 18.2188C23.9557 18.3073 23.9844 18.401 23.9844 18.5C23.9844 18.6406 23.9349 18.7604 23.8359 18.8594C23.7422 18.9531 23.625 19 23.4844 19C23.3958 19 23.3177 18.9818 23.25 18.9453C23.1875 18.9036 23.1276 18.849 23.0703 18.7812C23.013 18.7083 22.9583 18.6354 22.9062 18.5625C22.8594 18.4844 22.8073 18.4089 22.75 18.3359C22.6406 18.1901 22.526 18.0521 22.4062 17.9219C22.2865 17.7865 22.1641 17.6536 22.0391 17.5234C21.638 17.1224 21.2031 16.7656 20.7344 16.4531C20.2708 16.1406 19.7812 15.8776 19.2656 15.6641C18.7552 15.4453 18.224 15.2812 17.6719 15.1719C17.1198 15.0573 16.5625 15 16 15ZM16 18C15.6146 18 15.2318 18.0417 14.8516 18.125C14.4714 18.2083 14.1042 18.3307 13.75 18.4922C13.401 18.6484 13.0677 18.8411 12.75 19.0703C12.4375 19.2995 12.1536 19.5573 11.8984 19.8438C11.7734 19.9844 11.6589 20.1328 11.5547 20.2891C11.4557 20.4453 11.349 20.599 11.2344 20.75C11.1719 20.8281 11.1094 20.8906 11.0469 20.9375C10.9896 20.9792 10.9089 21 10.8047 21C10.6693 21 10.5521 20.9505 10.4531 20.8516C10.3542 20.7526 10.3047 20.6354 10.3047 20.5C10.3047 20.4167 10.3255 20.3333 10.3672 20.25C10.6328 19.7552 10.9714 19.3073 11.3828 18.9062C11.7943 18.5052 12.25 18.1641 12.75 17.8828C13.25 17.6016 13.776 17.3854 14.3281 17.2344C14.8854 17.0781 15.4427 17 16 17C16.5521 17 17.1068 17.0781 17.6641 17.2344C18.2214 17.3854 18.75 17.6016 19.25 17.8828C19.75 18.1641 20.2057 18.5052 20.6172 18.9062C21.0286 19.3073 21.3672 19.7552 21.6328 20.25C21.6745 20.3333 21.6953 20.4167 21.6953 20.5C21.6953 20.6354 21.6458 20.7526 21.5469 20.8516C21.4479 20.9505 21.3307 21 21.1953 21C21.0911 21 21.0078 20.9792 20.9453 20.9375C20.888 20.8906 20.8281 20.8281 20.7656 20.75C20.651 20.599 20.5417 20.4453 20.4375 20.2891C20.3385 20.1328 20.2266 19.9844 20.1016 19.8438C19.8464 19.5573 19.5599 19.2995 19.2422 19.0703C18.9297 18.8411 18.5964 18.6484 18.2422 18.4922C17.8932 18.3307 17.5286 18.2083 17.1484 18.125C16.7682 18.0417 16.3854 18 16 18ZM16 21C15.7083 21 15.4297 21.0417 15.1641 21.125C14.8984 21.2031 14.6406 21.3177 14.3906 21.4688C14.25 21.5573 14.1276 21.6458 14.0234 21.7344C13.9245 21.8229 13.8333 21.9167 13.75 22.0156C13.6719 22.1146 13.5964 22.2214 13.5234 22.3359C13.4505 22.4453 13.3724 22.5703 13.2891 22.7109C13.237 22.7995 13.1745 22.8698 13.1016 22.9219C13.0286 22.974 12.9401 23 12.8359 23C12.6953 23 12.5755 22.9505 12.4766 22.8516C12.3828 22.7526 12.3359 22.6328 12.3359 22.4922C12.3359 22.4245 12.3516 22.3542 12.3828 22.2812C12.5339 21.9479 12.7396 21.6406 13 21.3594C13.2604 21.0781 13.5521 20.8385 13.875 20.6406C14.1979 20.4375 14.5417 20.2812 14.9062 20.1719C15.2708 20.0573 15.6354 20 16 20C16.375 20 16.7448 20.0547 17.1094 20.1641C17.474 20.2734 17.8151 20.4271 18.1328 20.625C18.4557 20.8229 18.7448 21.0625 19 21.3438C19.2552 21.625 19.4609 21.9375 19.6172 22.2812C19.6484 22.3542 19.6641 22.4245 19.6641 22.4922C19.6641 22.6276 19.6146 22.7474 19.5156 22.8516C19.4167 22.9505 19.2995 23 19.1641 23C19.0599 23 18.9714 22.974 18.8984 22.9219C18.8255 22.8698 18.763 22.7995 18.7109 22.7109C18.6276 22.5703 18.5495 22.4453 18.4766 22.3359C18.4036 22.2214 18.3255 22.1146 18.2422 22.0156C18.1589 21.9167 18.0651 21.8229 17.9609 21.7344C17.862 21.6458 17.7422 21.5573 17.6016 21.4688C17.3568 21.3177 17.099 21.2031 16.8281 21.125C16.5625 21.0417 16.2865 21 16 21ZM14.75 24C14.75 23.8281 14.7839 23.6667 14.8516 23.5156C14.9193 23.3646 15.0078 23.2344 15.1172 23.125C15.2318 23.0104 15.3646 22.9193 15.5156 22.8516C15.6667 22.7839 15.8281 22.75 16 22.75C16.1719 22.75 16.3333 22.7839 16.4844 22.8516C16.6354 22.9193 16.7656 23.0104 16.875 23.125C16.9896 23.2344 17.0807 23.3646 17.1484 23.5156C17.2161 23.6667 17.25 23.8281 17.25 24C17.25 24.1719 17.2161 24.3333 17.1484 24.4844C17.0807 24.6354 16.9896 24.7682 16.875 24.8828C16.7656 24.9922 16.6354 25.0807 16.4844 25.1484C16.3333 25.2161 16.1719 25.25 16 25.25C15.8281 25.25 15.6667 25.2161 15.5156 25.1484C15.3646 25.0807 15.2318 24.9922 15.1172 24.8828C15.0078 24.7682 14.9193 24.6354 14.8516 24.4844C14.7839 24.3333 14.75 24.1719 14.75 24Z" fill="white"/>
</g>
<g clip-path="url(#clip1_10_486)">
<path d="M44 26.2422C44 26.1536 44.0156 26.0833 44.0469 26.0312C44.0833 25.974 44.1302 25.9141 44.1875 25.8516C44.2604 25.7786 44.3385 25.7109 44.4219 25.6484C44.5052 25.5807 44.5859 25.5104 44.6641 25.4375C45.0391 25.0938 45.3724 24.7135 45.6641 24.2969C45.9557 23.875 46.2005 23.4297 46.3984 22.9609C46.5964 22.4922 46.7448 22.0078 46.8438 21.5078C46.9479 21.0078 47 20.5052 47 20C47 19.5 46.9479 19 46.8438 18.5C46.7448 17.9948 46.5938 17.5078 46.3906 17.0391C46.1927 16.5651 45.9479 16.1172 45.6562 15.6953C45.3698 15.2734 45.0391 14.8932 44.6641 14.5547C44.5859 14.4818 44.5052 14.4141 44.4219 14.3516C44.3385 14.2839 44.2604 14.2135 44.1875 14.1406C44.125 14.0781 44.0781 14.0208 44.0469 13.9688C44.0156 13.9167 44 13.8438 44 13.75C44 13.6094 44.0469 13.4922 44.1406 13.3984C44.2396 13.3047 44.3594 13.2578 44.5 13.2578C44.5625 13.2578 44.6172 13.2682 44.6641 13.2891C44.7109 13.3047 44.7604 13.3307 44.8125 13.3672C45.0469 13.5182 45.2786 13.7109 45.5078 13.9453C45.737 14.1797 45.9531 14.4323 46.1562 14.7031C46.3646 14.9688 46.5547 15.2422 46.7266 15.5234C46.8984 15.8047 47.0443 16.0703 47.1641 16.3203C47.4401 16.8984 47.6484 17.4974 47.7891 18.1172C47.9297 18.7318 48 19.3594 48 20C48 20.6354 47.9297 21.2656 47.7891 21.8906C47.6484 22.5104 47.4401 23.1068 47.1641 23.6797C47.0443 23.9245 46.8984 24.1901 46.7266 24.4766C46.5547 24.7578 46.3646 25.0339 46.1562 25.3047C45.9479 25.5703 45.7292 25.8203 45.5 26.0547C45.2708 26.2891 45.0417 26.4818 44.8125 26.6328C44.7552 26.6693 44.7031 26.6979 44.6562 26.7188C44.6146 26.7344 44.5625 26.7422 44.5 26.7422C44.3646 26.7422 44.2474 26.6927 44.1484 26.5938C44.0495 26.4948 44 26.3776 44 26.2422ZM35.2969 23H33.5C33.2969 23 33.1042 22.9609 32.9219 22.8828C32.7396 22.8047 32.5781 22.6979 32.4375 22.5625C32.3021 22.4219 32.1953 22.2604 32.1172 22.0781C32.0391 21.8958 32 21.7031 32 21.5V18.5C32 18.2969 32.0391 18.1042 32.1172 17.9219C32.1953 17.7396 32.3021 17.5807 32.4375 17.4453C32.5781 17.3047 32.7396 17.1953 32.9219 17.1172C33.1042 17.0391 33.2969 17 33.5 17H35.2969L37.7188 14.5703C37.7917 14.4974 37.8724 14.4453 37.9609 14.4141C38.0547 14.3776 38.151 14.3594 38.25 14.3594C38.4635 14.3594 38.6406 14.4297 38.7812 14.5703C38.9271 14.7109 39 14.888 39 15.1016V24.8984C39 25.0026 38.9792 25.099 38.9375 25.1875C38.901 25.276 38.8464 25.3568 38.7734 25.4297C38.7057 25.4974 38.625 25.5521 38.5312 25.5938C38.4427 25.6302 38.349 25.6484 38.25 25.6484C38.0417 25.6484 37.8646 25.5755 37.7188 25.4297L35.2969 23ZM42.0312 24.4453C42.0312 24.3568 42.0443 24.2891 42.0703 24.2422C42.1016 24.1953 42.1458 24.138 42.2031 24.0703C42.4896 23.7474 42.7448 23.4375 42.9688 23.1406C43.1927 22.8438 43.3802 22.5391 43.5312 22.2266C43.6823 21.9089 43.7969 21.5703 43.875 21.2109C43.9583 20.8516 44 20.4479 44 20C44 19.5521 43.9583 19.1484 43.875 18.7891C43.7969 18.4297 43.6823 18.0938 43.5312 17.7812C43.3802 17.4635 43.1927 17.1562 42.9688 16.8594C42.7448 16.5625 42.4896 16.2526 42.2031 15.9297C42.1458 15.862 42.1016 15.8047 42.0703 15.7578C42.0443 15.7109 42.0312 15.6432 42.0312 15.5547C42.0312 15.4193 42.0807 15.3047 42.1797 15.2109C42.2839 15.112 42.4036 15.0625 42.5391 15.0625C42.6172 15.0625 42.6771 15.0729 42.7188 15.0938C42.7604 15.1094 42.8125 15.1406 42.875 15.1875C43.0312 15.3073 43.1849 15.4557 43.3359 15.6328C43.4922 15.8047 43.638 15.9896 43.7734 16.1875C43.9141 16.3854 44.0417 16.5885 44.1562 16.7969C44.2708 17 44.3672 17.1927 44.4453 17.375C44.8151 18.2083 45 19.0833 45 20C45 20.9167 44.8151 21.7917 44.4453 22.625C44.3724 22.7917 44.276 22.9818 44.1562 23.1953C44.0417 23.4036 43.9141 23.612 43.7734 23.8203C43.6328 24.0234 43.4844 24.2135 43.3281 24.3906C43.1771 24.5677 43.026 24.7083 42.875 24.8125C42.8177 24.849 42.763 24.8802 42.7109 24.9062C42.6641 24.9271 42.6068 24.9375 42.5391 24.9375C42.4036 24.9375 42.2839 24.8906 42.1797 24.7969C42.0807 24.6979 42.0312 24.5807 42.0312 24.4453ZM38 24.2891V15.7031L35.8516 17.8516C35.7526 17.9505 35.6354 18 35.5 18H33.5C33.3646 18 33.2474 18.0495 33.1484 18.1484C33.0495 18.2474 33 18.3646 33 18.5V21.5C33 21.6354 33.0495 21.7526 33.1484 21.8516C33.2474 21.9505 33.3646 22 33.5 22H35.5C35.6354 22 35.7526 22.0495 35.8516 22.1484L38 24.2891ZM40.0938 22.5391C40.0938 22.4661 40.1016 22.4089 40.1172 22.3672C40.138 22.3255 40.1693 22.276 40.2109 22.2188C40.3307 22.0365 40.4401 21.862 40.5391 21.6953C40.638 21.5234 40.7214 21.3516 40.7891 21.1797C40.8568 21.0026 40.9089 20.8203 40.9453 20.6328C40.9818 20.4401 41 20.2292 41 20C41 19.776 40.9818 19.5677 40.9453 19.375C40.9089 19.1823 40.8568 19 40.7891 18.8281C40.7214 18.651 40.638 18.4792 40.5391 18.3125C40.4401 18.1406 40.3307 17.9635 40.2109 17.7812C40.1693 17.724 40.138 17.6745 40.1172 17.6328C40.1016 17.5911 40.0938 17.5339 40.0938 17.4609C40.0938 17.3255 40.1432 17.2083 40.2422 17.1094C40.3411 17.0104 40.4583 16.9609 40.5938 16.9609C40.6823 16.9609 40.7552 16.9766 40.8125 17.0078C40.8698 17.0391 40.9271 17.0859 40.9844 17.1484C41.151 17.3307 41.2969 17.5365 41.4219 17.7656C41.5469 17.9896 41.651 18.2292 41.7344 18.4844C41.8229 18.7344 41.888 18.9896 41.9297 19.25C41.9766 19.5104 42 19.7604 42 20C42 20.2292 41.9766 20.4766 41.9297 20.7422C41.888 21.0026 41.8229 21.263 41.7344 21.5234C41.651 21.7786 41.5443 22.0234 41.4141 22.2578C41.2891 22.487 41.1458 22.6849 40.9844 22.8516C40.875 22.9714 40.7448 23.0312 40.5938 23.0312C40.4583 23.0312 40.3411 22.9844 40.2422 22.8906C40.1432 22.7917 40.0938 22.6745 40.0938 22.5391Z" fill="white"/>
</g>
<g clip-path="url(#clip2_10_486)">
<path d="M72 20.5C72 20.776 71.901 21.013 71.7031 21.2109C71.5104 21.4036 71.276 21.5 71 21.5H70V22.5547C70 22.8828 69.9323 23.1953 69.7969 23.4922C69.6667 23.7891 69.4896 24.0495 69.2656 24.2734C69.0469 24.4922 68.7891 24.6693 68.4922 24.8047C68.1953 24.9349 67.8828 25 67.5547 25H58.4453C58.1172 25 57.8047 24.9349 57.5078 24.8047C57.2109 24.6693 56.9505 24.4922 56.7266 24.2734C56.5078 24.0495 56.3307 23.7891 56.1953 23.4922C56.0651 23.1953 56 22.8828 56 22.5547V17.4453C56 17.1172 56.0651 16.8047 56.1953 16.5078C56.3307 16.2109 56.5078 15.9531 56.7266 15.7344C56.9505 15.5104 57.2109 15.3333 57.5078 15.2031C57.8047 15.0677 58.1172 15 58.4453 15H67.5547C67.888 15 68.2005 15.0677 68.4922 15.2031C68.7891 15.3333 69.0469 15.5104 69.2656 15.7344C69.4896 15.9531 69.6667 16.2109 69.7969 16.5078C69.9271 16.8047 69.9948 17.1172 70 17.4453V17.7969V18.5H71C71.1354 18.5 71.263 18.526 71.3828 18.5781C71.5026 18.6302 71.6094 18.7031 71.7031 18.7969C71.7969 18.8906 71.8698 18.9974 71.9219 19.1172C71.974 19.237 72 19.3646 72 19.5V20.5ZM69 17.5C69 17.2969 68.9609 17.1042 68.8828 16.9219C68.8047 16.7396 68.6953 16.5807 68.5547 16.4453C68.4193 16.3047 68.2604 16.1953 68.0781 16.1172C67.8958 16.0391 67.7031 16 67.5 16H58.5C58.2969 16 58.1042 16.0391 57.9219 16.1172C57.7396 16.1953 57.5781 16.3047 57.4375 16.4453C57.3021 16.5807 57.1953 16.7396 57.1172 16.9219C57.0391 17.1042 57 17.2969 57 17.5V22.5C57 22.7031 57.0391 22.8958 57.1172 23.0781C57.1953 23.2604 57.3021 23.4219 57.4375 23.5625C57.5781 23.6979 57.7396 23.8047 57.9219 23.8828C58.1042 23.9609 58.2969 24 58.5 24H67.5C67.7031 24 67.8958 23.9609 68.0781 23.8828C68.2604 23.8047 68.4193 23.6979 68.5547 23.5625C68.6953 23.4219 68.8047 23.2604 68.8828 23.0781C68.9609 22.8958 69 22.7031 69 22.5V17.5ZM66.25 17C66.4583 17 66.6354 17.0729 66.7812 17.2188C66.9271 17.3646 67 17.5417 67 17.75V22.25C67 22.4583 66.9271 22.6354 66.7812 22.7812C66.6354 22.9271 66.4583 23 66.25 23H58.75C58.5417 23 58.3646 22.9271 58.2188 22.7812C58.0729 22.6354 58 22.4583 58 22.25V17.75C58 17.5417 58.0729 17.3646 58.2188 17.2188C58.3646 17.0729 58.5417 17 58.75 17H66.25Z" fill="white"/>
</g>
<defs>
<clipPath id="clip0_10_486">
<rect width="20" height="20" fill="white" transform="translate(6 10)"/>
</clipPath>
<clipPath id="clip1_10_486">
<rect width="20" height="20" fill="white" transform="translate(30 10)"/>
</clipPath>
<clipPath id="clip2_10_486">
<rect width="20" height="20" fill="white" transform="translate(54 10)"/>
</clipPath>
</defs>
</svg>
