<svg width="35" height="35" viewBox="0 0 35 35" fill="none" xmlns="http://www.w3.org/2000/svg">
<path d="M17.5 3.5C9.8 3.5 3.5 9.8 3.5 17.5C3.5 25.2 9.8 31.5 17.5 31.5C25.2 31.5 31.5 25.2 31.5 17.5C31.5 9.8 25.2 3.5 17.5 3.5ZM23.0195 24.5C22.7628 24.5 22.6345 24.3717 22.3778 24.2433C20.4528 23.0872 18.0145 22.4467 15.4478 22.4467C14.0362 22.4467 12.4962 22.7033 11.2128 22.96C10.9562 22.96 10.6995 23.0883 10.5712 23.0883C10.0578 23.0883 9.67283 22.7033 9.67283 22.19C9.67283 21.6767 9.9295 21.2917 10.4428 21.2917C12.1112 20.9067 13.7807 20.65 15.5773 20.65C18.529 20.65 21.224 21.42 23.534 22.7033C23.7907 22.96 24.0473 23.0883 24.0473 23.6017C23.7883 24.2433 23.4033 24.5 23.0195 24.5ZM24.43 20.9078C24.1733 20.9078 23.9167 20.7795 23.66 20.6512C21.4783 19.2395 18.3972 18.4695 15.0617 18.4695C13.3933 18.4695 11.8522 18.7262 10.6983 18.9828C10.4417 19.1112 10.3133 19.1112 10.0567 19.1112C9.415 19.1112 9.02883 18.5978 9.02883 18.0833C9.02883 17.4417 9.2855 17.185 9.92717 16.9272C11.4672 16.5422 13.0083 16.1572 15.19 16.1572C18.7833 16.1572 22.12 17.0555 24.9445 18.7238C25.3295 18.9805 25.5862 19.3655 25.5862 19.7517C25.4567 20.3933 25.0728 20.9078 24.43 20.9078ZM26.0983 16.8C25.8417 16.8 25.7133 16.6717 25.3283 16.5433C22.7617 15.1317 19.04 14.2333 15.4467 14.2333C13.65 14.2333 11.725 14.49 10.0555 14.875C9.79883 14.875 9.6705 15.0033 9.2855 15.0033C8.5155 15.1328 8.00217 14.49 8.00217 13.7212C8.00217 12.9523 8.38717 12.565 8.9005 12.4378C10.955 11.9233 13.1367 11.6667 15.4467 11.6667C19.425 11.6667 23.5317 12.565 26.7412 14.2333C27.1262 14.49 27.5112 14.875 27.5112 15.5167C27.3828 16.2867 26.8683 16.8 26.0983 16.8Z" fill="#45C85A"/>
</svg>
