<svg width="35" height="35" viewBox="0 0 35 35" fill="none" xmlns="http://www.w3.org/2000/svg">
<path d="M32.0833 8.10103V26.8989C32.0833 27.825 31.5073 28.6489 30.6396 28.9552L24.2083 31.9739L24.7917 24.0625V10.9375L24.2083 3.02603L30.6396 6.04478C31.5073 6.35103 32.0833 7.17499 32.0833 8.10103Z" fill="#29B6F6"/>
<path d="M6.5625 24.7158L24.7917 10.9375V3.90324C24.7917 3.0297 23.711 2.62137 23.1328 3.27616L3.39646 21.3201C2.74021 21.9253 2.7774 22.9731 3.47448 23.531C3.47448 23.531 4.4399 24.4293 4.78917 24.6787C5.32584 25.0615 6.03094 25.1052 6.5625 24.7158Z" fill="#0277BD"/>
<path d="M6.5625 10.2842L24.7917 24.0625V31.0968C24.7917 31.9703 23.711 32.3786 23.1328 31.7238L3.39646 13.6799C2.74021 13.0747 2.7774 12.0269 3.47448 11.4691C3.47448 11.4691 4.4399 10.5707 4.78917 10.3213C5.32584 9.93854 6.03094 9.89479 6.5625 10.2842Z" fill="#0288D1"/>
</svg>
